<svg id="visual" viewBox="0 0 900 600" width="900" height="600" xmlns="http://www.w3.org/2000/svg" xmlns:xlink="http://www.w3.org/1999/xlink" version="1.1"><path d="M0 37L13.7 45C27.3 53 54.7 69 82 69C109.3 69 136.7 53 163.8 49C191 45 218 53 245.2 64C272.3 75 299.7 89 327 92C354.3 95 381.7 87 409 85C436.3 83 463.7 87 491 81C518.3 75 545.7 59 573 61C600.3 63 627.7 83 654.8 86C682 89 709 75 736.2 67C763.3 59 790.7 57 818 62C845.3 67 872.7 79 886.3 85L900 91L900 0L886.3 0C872.7 0 845.3 0 818 0C790.7 0 763.3 0 736.2 0C709 0 682 0 654.8 0C627.7 0 600.3 0 573 0C545.7 0 518.3 0 491 0C463.7 0 436.3 0 409 0C381.7 0 354.3 0 327 0C299.7 0 272.3 0 245.2 0C218 0 191 0 163.8 0C136.7 0 109.3 0 82 0C54.7 0 27.3 0 13.7 0L0 0Z" fill="#6198ff"></path><path d="M0 295L13.7 292C27.3 289 54.7 283 82 278C109.3 273 136.7 269 163.8 256C191 243 218 221 245.2 219C272.3 217 299.7 235 327 233C354.3 231 381.7 209 409 225C436.3 241 463.7 295 491 296C518.3 297 545.7 245 573 224C600.3 203 627.7 213 654.8 230C682 247 709 271 736.2 273C763.3 275 790.7 255 818 260C845.3 265 872.7 295 886.3 310L900 325L900 89L886.3 83C872.7 77 845.3 65 818 60C790.7 55 763.3 57 736.2 65C709 73 682 87 654.8 84C627.7 81 600.3 61 573 59C545.7 57 518.3 73 491 79C463.7 85 436.3 81 409 83C381.7 85 354.3 93 327 90C299.7 87 272.3 73 245.2 62C218 51 191 43 163.8 47C136.7 51 109.3 67 82 67C54.7 67 27.3 51 13.7 43L0 35Z" fill="#3c80ff"></path><path d="M0 373L13.7 382C27.3 391 54.7 409 82 418C109.3 427 136.7 427 163.8 401C191 375 218 323 245.2 321C272.3 319 299.7 367 327 368C354.3 369 381.7 323 409 331C436.3 339 463.7 401 491 406C518.3 411 545.7 359 573 339C600.3 319 627.7 331 654.8 349C682 367 709 391 736.2 399C763.3 407 790.7 399 818 395C845.3 391 872.7 391 886.3 391L900 391L900 323L886.3 308C872.7 293 845.3 263 818 258C790.7 253 763.3 273 736.2 271C709 269 682 245 654.8 228C627.7 211 600.3 201 573 222C545.7 243 518.3 295 491 294C463.7 293 436.3 239 409 223C381.7 207 354.3 229 327 231C299.7 233 272.3 215 245.2 217C218 219 191 241 163.8 254C136.7 267 109.3 271 82 276C54.7 281 27.3 287 13.7 290L0 293Z" fill="#0066ff"></path><path d="M0 463L13.7 473C27.3 483 54.7 503 82 504C109.3 505 136.7 487 163.8 459C191 431 218 393 245.2 390C272.3 387 299.7 419 327 424C354.3 429 381.7 407 409 416C436.3 425 463.7 465 491 470C518.3 475 545.7 445 573 425C600.3 405 627.7 395 654.8 406C682 417 709 449 736.2 466C763.3 483 790.7 485 818 482C845.3 479 872.7 471 886.3 467L900 463L900 389L886.3 389C872.7 389 845.3 389 818 393C790.7 397 763.3 405 736.2 397C709 389 682 365 654.8 347C627.7 329 600.3 317 573 337C545.7 357 518.3 409 491 404C463.7 399 436.3 337 409 329C381.7 321 354.3 367 327 366C299.7 365 272.3 317 245.2 319C218 321 191 373 163.8 399C136.7 425 109.3 425 82 416C54.7 407 27.3 389 13.7 380L0 371Z" fill="#0059dd"></path><path d="M0 601L13.7 601C27.3 601 54.7 601 82 601C109.3 601 136.7 601 163.8 601C191 601 218 601 245.2 601C272.3 601 299.7 601 327 601C354.3 601 381.7 601 409 601C436.3 601 463.7 601 491 601C518.3 601 545.7 601 573 601C600.3 601 627.7 601 654.8 601C682 601 709 601 736.2 601C763.3 601 790.7 601 818 601C845.3 601 872.7 601 886.3 601L900 601L900 461L886.3 465C872.7 469 845.3 477 818 480C790.7 483 763.3 481 736.2 464C709 447 682 415 654.8 404C627.7 393 600.3 403 573 423C545.7 443 518.3 473 491 468C463.7 463 436.3 423 409 414C381.7 405 354.3 427 327 422C299.7 417 272.3 385 245.2 388C218 391 191 429 163.8 457C136.7 485 109.3 503 82 502C54.7 501 27.3 481 13.7 471L0 461Z" fill="#004cbb"></path></svg>